# xmcd CD database file
#
# Track frame offsets:
#	150
#	26710
#	53392
#	83573
#	111549
#	134520
#	157872
#	182328
#	207721
#	237082
#
# Disc length: 3529 seconds
#
# Revision: 0
# Processed by: cddbd v1.5.1PL0 Copyright (c) Steve Scherf et al.
# Submitted via: CDex 1.51
#
DISCID=7c0dc70a
DTITLE=Charanga Forever - La Cuqui Quiere Fiesta
DYEAR=2004
DGENRE=Salsa
TTITLE0=Como pasan las cosas
TTITLE1=Todo empezo es tarde ya
TTITLE2=La cuqui quiere fiesta
TTITLE3=Sueño equivocado
TTITLE4=Demasiado loco
TTITLE5=Quince primaveras
TTITLE6=Son de la loma
TTITLE7=Mi medicina
TTITLE8=De la puerta pa fuera
TTITLE9=No te creas tanto
EXTD=YEAR: 2004
EXTT0=
EXTT1=
EXTT2=
EXTT3=
EXTT4=
EXTT5=
EXTT6=
EXTT7=
EXTT8=
EXTT9=
PLAYORDER=
